HIERARCHY
ROOT Hips
{
  OFFSET 49.1132 54.1724 -0.271898
  CHANNELS 6 Xposition Yposition Zposition Zrotation Xrotation Yrotation
  JOINT spine
  {
    OFFSET 0 8.30103 0.477351
    CHANNELS 3 Zrotation Xrotation Yrotation
    JOINT spine1
    {
      OFFSET 0 10.4565 0
      CHANNELS 3 Zrotation Xrotation Yrotation
      JOINT spine2
      {
        OFFSET 0 10.0192 0
        CHANNELS 3 Zrotation Xrotation Yrotation
        JOINT Neck
        {
          OFFSET 0 25.7235 1.22641
          CHANNELS 3 Zrotation Xrotation Yrotation
          JOINT Head
          {
            OFFSET 0 7.77175 0
            CHANNELS 3 Zrotation Xrotation Yrotation
            End Site
            {
              OFFSET 0 18.812 -6.20394
            }
          }
        }
        JOINT RightShoulder
        {
          OFFSET -4.2188 10.82 -0.587439
          CHANNELS 3 Zrotation Xrotation Yrotation
          JOINT RightArm
          {
            OFFSET 0 14.1914 0
            CHANNELS 3 Zrotation Xrotation Yrotation
            JOINT RightArmRoll
            {
              OFFSET 0 7.16408 0
              CHANNELS 3 Zrotation Xrotation Yrotation
              JOINT RightForeArm
              {
                OFFSET 0 20.8665 0
                CHANNELS 3 Zrotation Xrotation Yrotation
                JOINT RightForeArmRoll
                {
                  OFFSET 0 8.03921 0
                  CHANNELS 3 Zrotation Xrotation Yrotation
                  JOINT RightHand
                  {
                    OFFSET 0 16.133 0
                    CHANNELS 3 Zrotation Xrotation Yrotation
                    End Site
                    {
                      OFFSET 0 0 0
                    }
                  }
                }
              }
            }
          }
        }
        JOINT LeftShoulder
        {
          OFFSET 4.2188 10.82 -0.587439
          CHANNELS 3 Zrotation Xrotation Yrotation
          JOINT LeftArm
          {
            OFFSET 0 14.1914 0
            CHANNELS 3 Zrotation Xrotation Yrotation
            JOINT LeftArmRoll
            {
              OFFSET 0 7.16408 0
              CHANNELS 3 Zrotation Xrotation Yrotation
              JOINT LeftForeArm
              {
                OFFSET 0 20.8665 0
                CHANNELS 3 Zrotation Xrotation Yrotation
                JOINT LeftForeArmRoll
                {
                  OFFSET 0 8.03921 0
                  CHANNELS 3 Zrotation Xrotation Yrotation
                  JOINT LeftHand
                  {
                    OFFSET 0 16.133 0
                    CHANNELS 3 Zrotation Xrotation Yrotation
                    End Site
                    {
                      OFFSET 0 0 0
                    }
                  }
                }
              }
            }
          }
        }
      }
    }
  }
  JOINT RightUpLeg
  {
    OFFSET -7.35773 -1.34921 -1.13181
    CHANNELS 3 Zrotation Xrotation Yrotation
    JOINT RightUpLegRoll
    {
      OFFSET 0 18.9168 0
      CHANNELS 3 Zrotation Xrotation Yrotation
      JOINT RightLeg
      {
        OFFSET 0 -23.4256 0
        CHANNELS 3 Zrotation Xrotation Yrotation
        JOINT RightLegRoll
        {
          OFFSET 0 23.5023 0
          CHANNELS 3 Zrotation Xrotation Yrotation
          JOINT RightFoot
          {
            OFFSET 0 19.5617 0
            CHANNELS 3 Zrotation Xrotation Yrotation
            JOINT RightToeBase
            {
              OFFSET 0 16.3526 0
              CHANNELS 3 Zrotation Xrotation Yrotation
              End Site
              {
                OFFSET 0.00693125 7.91944 -0.912836
              }
            }
          }
        }
      }
    }
  }
  JOINT LeftUpLeg
  {
    OFFSET 7.35773 -1.34921 -1.13181
    CHANNELS 3 Zrotation Xrotation Yrotation
    JOINT LeftUpLegRoll
    {
      OFFSET 0 18.9169 0
      CHANNELS 3 Zrotation Xrotation Yrotation
      JOINT LeftLeg
      {
        OFFSET 0 23.4255 0
        CHANNELS 3 Zrotation Xrotation Yrotation
        JOINT LeftLegRoll
        {
          OFFSET 0 23.7195 0
          CHANNELS 3 Zrotation Xrotation Yrotation
          JOINT LeftFoot
          {
            OFFSET 0 19.3444 0
            CHANNELS 3 Zrotation Xrotation Yrotation
            JOINT LeftToeBase
            {
              OFFSET 0 16.3526 0
              CHANNELS 3 Zrotation Xrotation Yrotation
              End Site
              {
                OFFSET -0.0310629 7.91944 -0.912836
              }
            }
          }
        }
      }
    }
  }
}
MOTION
Frames: 11
Frame Time: 0.00208333
47.4498 52.4387 0.90295 0.469238 -9.66891 1.39842 0.702545 4.03446 0.327576 1.39074 12.0746 0.535001 1.38991 13.7194 0.512775 -10.1376 4.78392 -0.276523 4.60677 -5.57642 -1.5897 54.7139 -5.52992 -3.18233 116.375 36.2319 20.7493 2.20734e-005 2.99003e-007 -5.26909e-007 -3.95799 17.7715 2.53544 3.82846e-006 6.94372e-007 -3.00267 8.02914 -4.95144 0.697672 -63.8208 0.819154 0.169666 -103.553 31.6528 -11.6799 -3.89988e-006 3.8232e-006 -4.92491e-006 -5.44694 9.90094 1.29551 1.61973e-005 4.31227e-006 3.00377 -8.02896 -4.95144 -0.697671 113.224 72.7104 74.2121 180 7.01387e-015 178.37 -19.0119 76.025 21.4769 -1.95755e-006 -6.86802e-006 2.38529 -30.7177 73.9649 27.4242 8.12733 25.2394 -3.47324 -108.287 71.513 -77.7152 -1.07169e-005 -4.64205e-006 -1.4129 159.51 -74.6451 155.347 -9.07446e-007 -8.28959e-006 -2.65359 23.6624 71.514 -23.1847 -8.32034 28.0345 3.57004 
47.4566 52.4283 0.893115 0.466198 -9.77144 1.4041 0.700634 4.02812 0.32813 1.38615 12.062 0.538312 1.38528 13.7068 0.51609 -10.1227 4.84964 -0.284 4.62842 -5.54398 -1.598 54.7984 -5.52297 -3.18282 116.266 36.125 20.7781 2.20734e-005 2.99003e-007 -5.26909e-007 -3.8753 17.7797 2.50351 3.82846e-006 6.94372e-007 -3.00266 8.02914 -4.95144 0.697672 -63.8701 0.802248 0.185296 -103.512 31.5826 -11.7008 -3.89988e-006 3.8232e-006 -4.92491e-006 -5.47092 9.88973 1.29694 1.61973e-005 4.31227e-006 3.00377 -8.02896 -4.95144 -0.697671 113.436 72.6696 73.9984 180 7.01387e-015 178.369 -19.0008 76.0162 21.4692 -1.95755e-006 -6.86802e-006 2.38491 -30.7049 73.9488 27.3976 8.12747 25.2415 -3.47345 -108.501 71.5066 -77.4754 -1.07169e-005 -4.64205e-006 -1.41296 159.496 -74.6266 155.318 -9.07446e-007 -8.28959e-006 -2.65135 23.6293 71.499 -23.1624 -8.32051 28.0366 3.57035 
47.4558 52.4095 0.88 0.462335 -9.87332 1.40876 0.698891 4.02195 0.328556 1.38202 12.0496 0.541055 1.38112 13.6944 0.518836 -10.1077 4.91712 -0.29059 4.64682 -5.51796 -1.60578 54.8784 -5.51539 -3.18262 116.164 36.0215 20.8057 2.20734e-005 2.99003e-007 -5.26909e-007 -3.79665 17.7825 2.47291 3.82846e-006 6.94372e-007 -3.00266 8.02914 -4.95144 0.697672 -63.9197 0.78348 0.201942 -103.473 31.5132 -11.7233 -3.89988e-006 3.8232e-006 -4.92491e-006 -5.4929 9.87827 1.29819 1.61973e-005 4.31227e-006 3.00377 -8.02896 -4.95144 -0.697671 113.651 72.6298 73.7833 180 7.01386e-015 178.368 -18.9912 76.0094 21.4626 -1.95755e-006 -6.86802e-006 2.38448 -30.6903 73.9318 27.3694 8.1276 25.2433 -3.47365 -108.714 71.4986 -77.2369 -1.07169e-005 -4.64205e-006 -1.413 159.481 -74.609 155.287 -9.07446e-007 -8.28959e-006 -2.64916 23.5973 71.4843 -23.1408 -8.32064 28.0383 3.5706 
47.4521 52.3931 0.871356 0.45761 -9.97448 1.41221 0.697315 4.01594 0.328844 1.37838 12.0376 0.543144 1.37744 13.6824 0.520932 -10.0926 4.98714 -0.296078 4.66131 -5.49972 -1.6129 54.953 -5.50711 -3.18164 116.071 35.9219 20.832 2.20734e-005 2.99004e-007 -5.26909e-007 -3.72253 17.7793 2.44379 3.82846e-006 6.94372e-007 -3.00266 8.02914 -4.95144 0.697672 -63.9694 0.762631 0.219709 -103.437 31.4444 -11.7475 -3.89988e-006 3.8232e-006 -4.92491e-006 -5.51256 9.86718 1.29927 1.61973e-005 4.31227e-006 3.00377 -8.02896 -4.95144 -0.697671 113.868 72.5912 73.566 180 7.01386e-015 178.367 -18.9836 76.0047 21.4574 -1.95755e-006 -6.86802e-006 2.38399 -30.674 73.914 27.3395 8.1277 25.2448 -3.47381 -108.925 71.4889 -77.0002 -1.07169e-005 -4.64205e-006 -1.41303 159.464 -74.5926 155.256 -9.07446e-007 -8.28959e-006 -2.64704 23.5661 71.4694 -23.1195 -8.32076 28.0398 3.57077 
47.452 52.3811 0.861309 0.451978 -10.0748 1.41427 0.695907 4.01009 0.328981 1.37524 12.0259 0.544494 1.37429 13.6707 0.522298 -10.0773 5.06047 -0.300248 4.67122 -5.49063 -1.61926 55.0215 -5.49809 -3.17981 115.988 35.8264 20.8568 2.20734e-005 2.99004e-007 -5.26909e-007 -3.6534 17.7694 2.41631 3.82846e-006 6.94372e-007 -3.00265 8.02914 -4.95144 0.697672 -64.0192 0.739484 0.238701 -103.403 31.3756 -11.7739 -3.89988e-006 3.8232e-006 -4.92491e-006 -5.52963 9.85707 1.30021 1.61973e-005 4.31227e-006 3.00377 -8.02896 -4.95144 -0.697671 114.088 72.554 73.3459 180 7.01385e-015 178.365 -18.9784 76.0024 21.454 -1.95755e-006 -6.86802e-006 2.38343 -30.656 73.8952 27.308 8.12777 25.2458 -3.47393 -109.134 71.4773 -76.7659 -1.07169e-005 -4.64205e-006 -1.41302 159.446 -74.5774 155.223 -9.07446e-007 -8.28959e-006 -2.64497 23.5356 71.4542 -23.0981 -8.32087 28.0412 3.57087 
47.4581 52.3716 0.849753 0.445396 -10.1743 1.41474 0.694669 4.00439 0.328958 1.37264 12.0145 0.545019 1.37167 13.6593 0.522854 -10.0617 5.13789 -0.302886 4.67586 -5.49204 -1.62475 55.0831 -5.48828 -3.17704 115.915 35.7352 20.88 2.20734e-005 2.99003e-007 -5.26909e-007 -3.58974 17.7522 2.39061 3.82846e-006 6.94372e-007 -3.00265 8.02914 -4.95144 0.697672 -64.069 0.71382 0.259023 -103.373 31.3067 -11.8028 -3.89988e-006 3.8232e-006 -4.92491e-006 -5.54379 9.84856 1.301 1.61973e-005 4.31227e-006 3.00377 -8.02896 -4.95144 -0.697671 114.313 72.5183 73.1225 180 7.01385e-015 178.364 -18.9758 76.0027 21.4527 -1.95755e-006 -6.86802e-006 2.3828 -30.6361 73.8756 27.2749 8.12779 25.2462 -3.47399 -109.339 71.4637 -76.5344 -1.07169e-005 -4.64205e-006 -1.41297 159.426 -74.5638 155.188 -9.07446e-007 -8.28959e-006 -2.64296 23.5052 71.4381 -23.0763 -8.321 28.0428 3.57088 
47.4483 52.3701 0.837267 0.439494 -10.2719 1.41496 0.693507 3.99839 0.329105 1.37038 12.0025 0.545392 1.36938 13.6473 0.523267 -10.0448 5.22186 -0.305566 4.67351 -5.50546 -1.63108 55.1387 -5.47848 -3.17392 115.85 35.644 20.9027 2.20734e-005 2.99003e-007 -5.26909e-007 -3.52877 17.7316 2.3659 3.82846e-006 6.94372e-007 -3.00265 8.02914 -4.95144 0.697672 -64.1208 0.688391 0.279428 -103.344 31.2379 -11.8346 -3.89988e-006 3.8232e-006 -4.92491e-006 -5.5556 9.84002 1.30161 1.61973e-005 4.31227e-006 3.00377 -8.02896 -4.95144 -0.697671 114.531 72.4838 72.9048 180 7.01384e-015 178.363 -18.9767 76.0046 21.4548 -1.95755e-006 -6.86802e-006 2.38213 -30.6137 73.8548 27.2395 8.12779 25.2461 -3.47403 -109.541 71.4496 -76.3079 -1.07169e-005 -4.64205e-006 -1.41294 159.406 -74.5509 155.154 -9.07446e-007 -8.28959e-006 -2.64107 23.4769 71.4226 -23.0559 -8.32107 28.0438 3.57076 
47.4447 52.3485 0.828629 0.435517 -10.367 1.41611 0.69235 3.99176 0.329678 1.36827 11.9893 0.546202 1.36724 13.6341 0.524118 -10.0256 5.31331 -0.30969 4.66362 -5.53042 -1.63966 55.19 -5.46933 -3.171 115.787 35.5493 20.9261 2.20734e-005 2.99003e-007 -5.26909e-007 -3.46793 17.7114 2.34141 3.82846e-006 6.94372e-007 -3.00264 8.02914 -4.95144 0.697672 -64.1759 0.665471 0.29888 -103.313 31.1701 -11.8693 -3.89988e-006 3.8232e-006 -4.92491e-006 -5.56582 9.82959 1.302 1.61973e-005 4.31227e-006 3.00377 -8.02896 -4.95144 -0.697671 114.734 72.4497 72.7 180 7.01384e-015 178.362 -18.9813 76.0068 21.461 -1.95755e-006 -6.86802e-006 2.38145 -30.5884 73.8324 27.2014 8.12778 25.246 -3.47406 -109.739 71.4366 -76.0874 -1.07169e-005 -4.64205e-006 -1.41298 159.387 -74.5379 155.121 -9.07446e-007 -8.28958e-006 -2.63937 23.4523 71.4092 -23.0385 -8.32105 28.0434 3.57049 
47.4436 52.3414 0.816833 0.432838 -10.4599 1.4178 0.691236 3.98468 0.330553 1.36638 11.9751 0.547245 1.36531 13.6199 0.525199 -10.0048 5.41067 -0.314788 4.6474 -5.56533 -1.64989 55.2372 -5.46056 -3.16809 115.728 35.4526 20.9499 2.20734e-005 2.99003e-007 -5.26909e-007 -3.408 17.6903 2.31735 3.82846e-006 6.94372e-007 -3.00264 8.02914 -4.95144 0.697672 -64.2338 0.644118 0.317801 -103.282 31.1033 -11.9064 -3.89988e-006 3.8232e-006 -4.92491e-006 -5.57443 9.81745 1.30216 1.61973e-005 4.31227e-006 3.00377 -8.02896 -4.95144 -0.697671 114.926 72.4162 72.5048 180 7.01384e-015 178.36 -18.9889 76.0097 21.4704 -1.95755e-006 -6.86802e-006 2.38075 -30.5604 73.8087 27.1608 8.12778 25.246 -3.47409 -109.936 71.4239 -75.8715 -1.07169e-005 -4.64205e-006 -1.41308 159.369 -74.5249 155.09 -9.07446e-007 -8.28958e-006 -2.63784 23.4309 71.3976 -23.0236 -8.32093 28.0419 3.57009 
47.4389 52.3258 0.810793 0.430831 -10.5513 1.41965 0.690202 3.97734 0.331606 1.36477 11.9605 0.548314 1.36366 13.6053 0.526303 -9.98277 5.51237 -0.320387 4.62602 -5.60858 -1.66116 55.2805 -5.45187 -3.16501 115.673 35.3555 20.9735 2.20734e-005 2.99003e-007 -5.26909e-007 -3.34974 17.6673 2.29393 3.82846e-006 6.94372e-007 -3.00264 8.02914 -4.95144 0.697672 -64.2937 0.62339 0.336612 -103.25 31.0376 -11.9455 -3.89988e-006 3.8232e-006 -4.92491e-006 -5.58143 9.80381 1.30212 1.61973e-005 4.31227e-006 3.00377 -8.02896 -4.95144 -0.697671 115.112 72.3832 72.3161 180 7.01383e-015 178.359 -18.999 76.0136 21.4823 -1.95755e-006 -6.86802e-006 2.38001 -30.5301 73.7837 27.1181 8.12778 25.2459 -3.47412 -110.13 71.4113 -75.6592 -1.07169e-005 -4.64205e-006 -1.41323 159.351 -74.5121 155.06 -9.07446e-007 -8.28959e-006 -2.63644 23.4122 71.3875 -23.011 -8.32073 28.0393 3.56958 
47.4379 52.3144 0.796179 0.428865 -10.6415 1.42125 0.689285 3.96993 0.332712 1.36351 11.9456 0.549205 1.36235 13.5904 0.527223 -9.96017 5.61688 -0.326016 4.60066 -5.65857 -1.67286 55.32 -5.44299 -3.16158 115.623 35.2596 20.9968 2.20734e-005 2.99004e-007 -5.26909e-007 -3.29393 17.6413 2.27137 3.82846e-006 6.94372e-007 -3.00264 8.02914 -4.95144 0.697672 -64.3548 0.602346 0.355737 -103.218 30.9731 -11.9862 -3.89988e-006 3.8232e-006 -4.92491e-006 -5.58682 9.78885 1.30187 1.61973e-005 4.31227e-006 3.00377 -8.02896 -4.95144 -0.697671 115.294 72.3508 72.1304 180 7.01383e-015 178.358 -19.011 76.0186 21.4959 -1.95755e-006 -6.86802e-006 2.37924 -30.4978 73.7577 27.0735 8.12777 25.2459 -3.47415 -110.323 71.3982 -75.4494 -1.07169e-005 -4.64205e-006 -1.4134 159.334 -74.4996 155.029 -9.07446e-007 -8.28958e-006 -2.63516 23.3957 71.3786 -23.0002 -8.32046 28.0359 3.56898 
